<?xml version="1.0" encoding="utf-8"?>
<!-- Generator: Adobe Illustrator 17.0.0, SVG Export Plug-In . SVG Version: 6.00 Build 0)  -->
<!DOCTYPE svg PUBLIC "-//W3C//DTD SVG 1.1//EN" "http://www.w3.org/Graphics/SVG/1.1/DTD/svg11.dtd">
<svg version="1.1" id="Слой_1" xmlns="http://www.w3.org/2000/svg" xmlns:xlink="http://www.w3.org/1999/xlink" x="0px" y="0px"
	 width="31px" height="30px" viewBox="0 0 31 30" enable-background="new 0 0 31 30" xml:space="preserve">
<g>
	<path fill="#FFFFFF" d="M27.46,0H3.266C1.669,0,0.362,1.434,0.362,3.188c0,1.752,1.306,3.187,2.904,3.187H27.46
		c1.596,0,2.902-1.434,2.902-3.187C30.362,1.434,29.056,0,27.46,0L27.46,0z M27.46,0"/>
	<path fill="#FFFFFF" d="M27.46,11.687H3.266c-1.597,0-2.904,1.435-2.904,3.188c0,1.752,1.306,3.187,2.904,3.187H27.46
		c1.596,0,2.902-1.434,2.902-3.187C30.362,13.122,29.056,11.687,27.46,11.687L27.46,11.687z M27.46,11.687"/>
	<path fill="#FFFFFF" d="M27.46,23.375H3.266c-1.597,0-2.904,1.435-2.904,3.188c0,1.753,1.306,3.188,2.904,3.188H27.46
		c1.596,0,2.902-1.435,2.902-3.188C30.362,24.809,29.056,23.375,27.46,23.375L27.46,23.375z M27.46,23.375"/>
</g>
</svg>
